<svg width="30.000000" height="30.000000" viewBox="0 0 30 30" fill="none" xmlns="http://www.w3.org/2000/svg" xmlns:xlink="http://www.w3.org/1999/xlink">
	<desc>
			Created with Pixso.
	</desc>
	<defs/>
	<path id="Vector" d="M14.06 29.45C13.7 29.09 13.52 28.63 13.5 28.06C13.48 27.5 13.65 27.04 14.01 26.68L23.45 16.98L1.92 16.98C1.38 16.98 0.92 16.79 0.55 16.4C0.18 16.02 -0.01 15.55 0 15C0 14.43 0.18 13.96 0.55 13.58C0.92 13.2 1.38 13.01 1.92 13.01L23.45 13.01L14.01 3.31C13.65 2.95 13.49 2.49 13.5 1.93C13.52 1.36 13.7 0.9 14.06 0.54C14.41 0.18 14.86 0 15.4 0C15.95 0 16.4 0.18 16.75 0.54L29.47 13.61C29.66 13.77 29.79 13.98 29.88 14.23C29.96 14.48 30 14.73 29.99 15C29.99 15.26 29.96 15.51 29.88 15.74C29.8 15.97 29.66 16.18 29.47 16.38L16.75 29.45C16.4 29.81 15.95 30 15.4 30C14.86 30 14.41 29.81 14.06 29.45Z" fill="#F3F6F9" fill-opacity="1.000000" fill-rule="nonzero"/>
</svg>
