<svg width="23.000000" height="23.000000" viewBox="0 0 23 23" fill="none" xmlns="http://www.w3.org/2000/svg" xmlns:xlink="http://www.w3.org/1999/xlink">
	<desc>
			Created with Pixso.
	</desc>
	<defs/>
	<g opacity="0.900000">
		<path id="Vector" d="M22.35 3.74L14.6 11.5L22.35 19.25C22.76 19.66 23 20.22 23 20.8C23 21.38 22.76 21.94 22.35 22.35C21.94 22.76 21.38 23 20.8 23C20.22 23 19.66 22.76 19.25 22.35L11.5 14.6L3.74 22.35C3.33 22.76 2.77 23 2.19 23C1.61 23 1.05 22.76 0.64 22.35C0.23 21.94 0 21.38 0 20.8C0 20.22 0.23 19.66 0.64 19.25L8.39 11.5L0.64 3.74C0.23 3.33 0 2.77 0 2.19C0 1.61 0.23 1.05 0.64 0.64C1.05 0.23 1.61 0 2.19 0C2.77 0 3.33 0.23 3.74 0.64L11.5 8.39L19.25 0.64C19.66 0.23 20.22 0 20.8 0C21.38 0 21.94 0.23 22.35 0.64C22.76 1.05 23 1.61 23 2.19C23 2.77 22.76 3.33 22.35 3.74Z" fill="#FFFFFF" fill-opacity="1.000000" fill-rule="nonzero"/>
	</g>
</svg>
